# Exported from Wings 3D 2.2.9
o the_sphere
#114 vertices, 224 faces
v 0.38268343 0.92387953 0.0000000e+0
v 0.35355339 0.92387953 0.14644661
v 0.27059805 0.92387953 0.27059805
v 0.14644661 0.92387953 0.35355339
v 2.3432602e-17 0.92387953 0.38268343
v -0.14644661 0.92387953 0.35355339
v -0.27059805 0.92387953 0.27059805
v -0.35355339 0.92387953 0.14644661
v -0.38268343 0.92387953 4.6865204e-17
v -0.35355339 0.92387953 -0.14644661
v -0.27059805 0.92387953 -0.27059805
v -0.14644661 0.92387953 -0.35355339
v -7.0297806e-17 0.92387953 -0.38268343
v 0.14644661 0.92387953 -0.35355339
v 0.27059805 0.92387953 -0.27059805
v 0.35355339 0.92387953 -0.14644661
v 0.70710678 0.70710678 0.0000000e+0
v 0.65328148 0.70710678 0.27059805
v 0.50000000 0.70710678 0.50000000
v 0.27059805 0.70710678 0.65328148
v 4.3297803e-17 0.70710678 0.70710678
v -0.27059805 0.70710678 0.65328148
v -0.50000000 0.70710678 0.50000000
v -0.65328148 0.70710678 0.27059805
v -0.70710678 0.70710678 8.6595606e-17
v -0.65328148 0.70710678 -0.27059805
v -0.50000000 0.70710678 -0.50000000
v -0.27059805 0.70710678 -0.65328148
v -1.2989341e-16 0.70710678 -0.70710678
v 0.27059805 0.70710678 -0.65328148
v 0.50000000 0.70710678 -0.50000000
v 0.65328148 0.70710678 -0.27059805
v 0.92387953 0.38268343 0.0000000e+0
v 0.85355339 0.38268343 0.35355339
v 0.65328148 0.38268343 0.65328148
v 0.35355339 0.38268343 0.85355339
v 5.6571306e-17 0.38268343 0.92387953
v -0.35355339 0.38268343 0.85355339
v -0.65328148 0.38268343 0.65328148
v -0.85355339 0.38268343 0.35355339
v -0.92387953 0.38268343 1.1314261e-16
v -0.85355339 0.38268343 -0.35355339
v -0.65328148 0.38268343 -0.65328148
v -0.35355339 0.38268343 -0.85355339
v -1.6971392e-16 0.38268343 -0.92387953
v 0.35355339 0.38268343 -0.85355339
v 0.65328148 0.38268343 -0.65328148
v 0.85355339 0.38268343 -0.35355339
v 1.00000000 6.1232340e-17 0.0000000e+0
v 0.92387953 6.1232340e-17 0.38268343
v 0.70710678 6.1232340e-17 0.70710678
v 0.38268343 6.1232340e-17 0.92387953
v 6.1232340e-17 6.1232340e-17 1.00000000
v -0.38268343 6.1232340e-17 0.92387953
v -0.70710678 6.1232340e-17 0.70710678
v -0.92387953 6.1232340e-17 0.38268343
v -1.00000000 6.1232340e-17 1.2246468e-16
v -0.92387953 6.1232340e-17 -0.38268343
v -0.70710678 6.1232340e-17 -0.70710678
v -0.38268343 6.1232340e-17 -0.92387953
v -1.8369702e-16 6.1232340e-17 -1.00000000
v 0.38268343 6.1232340e-17 -0.92387953
v 0.70710678 6.1232340e-17 -0.70710678
v 0.92387953 6.1232340e-17 -0.38268343
v 0.92387953 -0.38268343 0.0000000e+0
v 0.85355339 -0.38268343 0.35355339
v 0.65328148 -0.38268343 0.65328148
v 0.35355339 -0.38268343 0.85355339
v 5.6571306e-17 -0.38268343 0.92387953
v -0.35355339 -0.38268343 0.85355339
v -0.65328148 -0.38268343 0.65328148
v -0.85355339 -0.38268343 0.35355339
v -0.92387953 -0.38268343 1.1314261e-16
v -0.85355339 -0.38268343 -0.35355339
v -0.65328148 -0.38268343 -0.65328148
v -0.35355339 -0.38268343 -0.85355339
v -1.6971392e-16 -0.38268343 -0.92387953
v 0.35355339 -0.38268343 -0.85355339
v 0.65328148 -0.38268343 -0.65328148
v 0.85355339 -0.38268343 -0.35355339
v 0.70710678 -0.70710678 0.0000000e+0
v 0.65328148 -0.70710678 0.27059805
v 0.50000000 -0.70710678 0.50000000
v 0.27059805 -0.70710678 0.65328148
v 4.3297803e-17 -0.70710678 0.70710678
v -0.27059805 -0.70710678 0.65328148
v -0.50000000 -0.70710678 0.50000000
v -0.65328148 -0.70710678 0.27059805
v -0.70710678 -0.70710678 8.6595606e-17
v -0.65328148 -0.70710678 -0.27059805
v -0.50000000 -0.70710678 -0.50000000
v -0.27059805 -0.70710678 -0.65328148
v -1.2989341e-16 -0.70710678 -0.70710678
v 0.27059805 -0.70710678 -0.65328148
v 0.50000000 -0.70710678 -0.50000000
v 0.65328148 -0.70710678 -0.27059805
v 0.38268343 -0.92387953 0.0000000e+0
v 0.35355339 -0.92387953 0.14644661
v 0.27059805 -0.92387953 0.27059805
v 0.14644661 -0.92387953 0.35355339
v 2.3432602e-17 -0.92387953 0.38268343
v -0.14644661 -0.92387953 0.35355339
v -0.27059805 -0.92387953 0.27059805
v -0.35355339 -0.92387953 0.14644661
v -0.38268343 -0.92387953 4.6865204e-17
v -0.35355339 -0.92387953 -0.14644661
v -0.27059805 -0.92387953 -0.27059805
v -0.14644661 -0.92387953 -0.35355339
v -7.0297806e-17 -0.92387953 -0.38268343
v 0.14644661 -0.92387953 -0.35355339
v 0.27059805 -0.92387953 -0.27059805
v 0.35355339 -0.92387953 -0.14644661
v 0.0000000e+0 1.00000000 0.0000000e+0
v 0.0000000e+0 -1.00000000 0.0000000e+0
vn -0.44254783 -0.89674490 2.3633102e-18
vn -0.35310199 -0.92408176 -0.14625963
vn -0.31292857 -0.89674490 -0.31292857
vn -0.14625963 -0.92408176 -0.35310199
vn -1.8906482e-17 -0.89674490 -0.44254783
vn 0.14625963 -0.92408176 -0.35310199
vn 0.31292857 -0.89674490 -0.31292857
vn 0.35310199 -0.92408176 -0.14625963
vn 0.44254783 -0.89674490 -4.0176273e-17
vn 0.35310199 -0.92408176 0.14625963
vn 0.31292857 -0.89674490 0.31292857
vn 0.14625963 -0.92408176 0.35310199
vn 6.1446065e-17 -0.89674490 0.44254783
vn -0.14625963 -0.92408176 0.35310199
vn -0.31292857 -0.89674490 0.31292857
vn -0.35310199 -0.92408176 0.14625963
vn -0.70658450 -0.70762868 0.0000000e+0
vn -0.65279895 -0.70762868 -0.27039818
vn -0.49963069 -0.70762868 -0.49963069
vn -0.27039818 -0.70762868 -0.65279895
vn -7.1443235e-18 -0.70762868 -0.70658450
vn 0.27039818 -0.70762868 -0.65279895
vn 0.49963069 -0.70762868 -0.49963069
vn 0.65279895 -0.70762868 -0.27039818
vn 0.70658450 -0.70762868 -2.8577294e-17
vn 0.65279895 -0.70762868 0.27039818
vn 0.49963069 -0.70762868 0.49963069
vn 0.27039818 -0.70762868 0.65279895
vn 7.1443235e-17 -0.70762868 0.70658450
vn -0.27039818 -0.70762868 0.65279895
vn -0.49963069 -0.70762868 0.49963069
vn -0.65279895 -0.70762868 0.27039818
vn -0.92368212 -0.38315969 0.0000000e+0
vn -0.85337100 -0.38315969 -0.35347784
vn -0.65314189 -0.38315969 -0.65314189
vn -0.35347784 -0.38315969 -0.85337100
vn -2.5163351e-17 -0.38315969 -0.92368212
vn 0.35347784 -0.38315969 -0.85337100
vn 0.65314189 -0.38315969 -0.65314189
vn 0.85337100 -0.38315969 -0.35347784
vn 0.92368212 -0.38315969 -2.5163351e-17
vn 0.85337100 -0.38315969 0.35347784
vn 0.65314189 -0.38315969 0.65314189
vn 0.35347784 -0.38315969 0.85337100
vn 7.9084817e-17 -0.38315969 0.92368212
vn -0.35347784 -0.38315969 0.85337100
vn -0.65314189 -0.38315969 0.65314189
vn -0.85337100 -0.38315969 0.35347784
vn -1.00000000 -2.8832850e-17 0.0000000e+0
vn -0.92387953 -4.3249275e-17 -0.38268343
vn -0.70710678 -5.0457488e-17 -0.70710678
vn -0.38268343 7.2082126e-18 -0.92387953
vn -2.8832850e-17 -2.1624638e-17 -1.00000000
vn 0.38268343 0.0000000e+0 -0.92387953
vn 0.70710678 -5.0457488e-17 -0.70710678
vn 0.92387953 -6.8478019e-17 -0.38268343
vn 1.00000000 0.0000000e+0 -2.8832850e-17
vn 0.92387953 -3.9645169e-17 0.38268343
vn 0.70710678 -5.0457488e-17 0.70710678
vn 0.38268343 -7.2082126e-18 0.92387953
vn 7.9290338e-17 -2.1624638e-17 1.00000000
vn -0.38268343 0.0000000e+0 0.92387953
vn -0.70710678 -5.0457488e-17 0.70710678
vn -0.92387953 -3.9645169e-17 0.38268343
vn -0.92368212 0.38315969 0.0000000e+0
vn -0.85337100 0.38315969 -0.35347784
vn -0.65314189 0.38315969 -0.65314189
vn -0.35347784 0.38315969 -0.85337100
vn -3.9542409e-17 0.38315969 -0.92368212
vn 0.35347784 0.38315969 -0.85337100
vn 0.65314189 0.38315969 -0.65314189
vn 0.85337100 0.38315969 -0.35347784
vn 0.92368212 0.38315969 -5.3921466e-17
vn 0.85337100 0.38315969 0.35347784
vn 0.65314189 0.38315969 0.65314189
vn 0.35347784 0.38315969 0.85337100
vn 8.2679581e-17 0.38315969 0.92368212
vn -0.35347784 0.38315969 0.85337100
vn -0.65314189 0.38315969 0.65314189
vn -0.85337100 0.38315969 0.35347784
vn -0.70658450 0.70762868 0.0000000e+0
vn -0.65279895 0.70762868 -0.27039818
vn -0.49963069 0.70762868 -0.49963069
vn -0.27039818 0.70762868 -0.65279895
vn -1.4288647e-17 0.70762868 -0.70658450
vn 0.27039818 0.70762868 -0.65279895
vn 0.49963069 0.70762868 -0.49963069
vn 0.65279895 0.70762868 -0.27039818
vn 0.70658450 0.70762868 -3.2149456e-17
vn 0.65279895 0.70762868 0.27039818
vn 0.49963069 0.70762868 0.49963069
vn 0.27039818 0.70762868 0.65279895
vn 6.0726750e-17 0.70762868 0.70658450
vn -0.27039818 0.70762868 0.65279895
vn -0.49963069 0.70762868 0.49963069
vn -0.65279895 0.70762868 0.27039818
vn -0.44254783 0.89674490 2.3633102e-18
vn -0.35310199 0.92408176 -0.14625963
vn -0.31292857 0.89674490 -0.31292857
vn -0.14625963 0.92408176 -0.35310199
vn -2.0088137e-17 0.89674490 -0.44254783
vn 0.14625963 0.92408176 -0.35310199
vn 0.31292857 0.89674490 -0.31292857
vn 0.35310199 0.92408176 -0.14625963
vn 0.44254783 0.89674490 -4.0176273e-17
vn 0.35310199 0.92408176 0.14625963
vn 0.31292857 0.89674490 0.31292857
vn 0.14625963 0.92408176 0.35310199
vn 6.0264410e-17 0.89674490 0.44254783
vn -0.14625963 0.92408176 0.35310199
vn -0.31292857 0.89674490 0.31292857
vn -0.35310199 0.92408176 0.14625963
vn -1.7700400e-18 -1.00000000 -7.9651798e-18
vn -1.7700400e-18 1.00000000 4.4250999e-18
g the_sphere
s 1
f 1//1 18//18 2//2
f 1//1 32//32 17//17
f 1//1 113//113 16//16
f 2//2 18//18 3//3
f 2//2 113//113 1//1
f 3//3 20//20 4//4
f 3//3 113//113 2//2
f 4//4 20//20 5//5
f 4//4 113//113 3//3
f 5//5 22//22 6//6
f 5//5 113//113 4//4
f 6//6 22//22 7//7
f 6//6 113//113 5//5
f 7//7 24//24 8//8
f 7//7 113//113 6//6
f 8//8 24//24 9//9
f 8//8 113//113 7//7
f 9//9 26//26 10//10
f 9//9 113//113 8//8
f 10//10 26//26 11//11
f 10//10 113//113 9//9
f 11//11 28//28 12//12
f 11//11 113//113 10//10
f 12//12 28//28 13//13
f 12//12 113//113 11//11
f 13//13 30//30 14//14
f 13//13 113//113 12//12
f 14//14 30//30 15//15
f 14//14 113//113 13//13
f 15//15 32//32 16//16
f 15//15 113//113 14//14
f 16//16 32//32 1//1
f 16//16 113//113 15//15
f 17//17 18//18 1//1
f 17//17 33//33 18//18
f 18//18 19//19 3//3
f 18//18 35//35 19//19
f 19//19 20//20 3//3
f 19//19 35//35 20//20
f 20//20 21//21 5//5
f 20//20 37//37 21//21
f 21//21 22//22 5//5
f 21//21 37//37 22//22
f 22//22 23//23 7//7
f 22//22 39//39 23//23
f 23//23 24//24 7//7
f 23//23 39//39 24//24
f 24//24 25//25 9//9
f 24//24 41//41 25//25
f 25//25 26//26 9//9
f 25//25 41//41 26//26
f 26//26 27//27 11//11
f 26//26 43//43 27//27
f 27//27 28//28 11//11
f 27//27 43//43 28//28
f 28//28 29//29 13//13
f 28//28 45//45 29//29
f 29//29 30//30 13//13
f 29//29 45//45 30//30
f 30//30 31//31 15//15
f 30//30 47//47 31//31
f 31//31 32//32 15//15
f 31//31 47//47 32//32
f 32//32 33//33 17//17
f 32//32 48//48 33//33
f 33//33 34//34 18//18
f 33//33 50//50 34//34
f 33//33 64//64 49//49
f 34//34 35//35 18//18
f 34//34 50//50 35//35
f 35//35 36//36 20//20
f 35//35 52//52 36//36
f 36//36 37//37 20//20
f 36//36 52//52 37//37
f 37//37 38//38 22//22
f 37//37 54//54 38//38
f 38//38 39//39 22//22
f 38//38 54//54 39//39
f 39//39 40//40 24//24
f 39//39 56//56 40//40
f 40//40 41//41 24//24
f 40//40 56//56 41//41
f 41//41 42//42 26//26
f 41//41 58//58 42//42
f 42//42 43//43 26//26
f 42//42 58//58 43//43
f 43//43 44//44 28//28
f 43//43 60//60 44//44
f 44//44 45//45 28//28
f 44//44 60//60 45//45
f 45//45 46//46 30//30
f 45//45 62//62 46//46
f 46//46 47//47 30//30
f 46//46 62//62 47//47
f 47//47 48//48 32//32
f 47//47 64//64 48//48
f 48//48 64//64 33//33
f 49//49 50//50 33//33
f 49//49 65//65 50//50
f 50//50 51//51 35//35
f 50//50 67//67 51//51
f 51//51 52//52 35//35
f 51//51 67//67 52//52
f 52//52 53//53 37//37
f 52//52 69//69 53//53
f 53//53 54//54 37//37
f 53//53 69//69 54//54
f 54//54 55//55 39//39
f 54//54 71//71 55//55
f 55//55 56//56 39//39
f 55//55 71//71 56//56
f 56//56 57//57 41//41
f 56//56 73//73 57//57
f 57//57 58//58 41//41
f 57//57 73//73 58//58
f 58//58 59//59 43//43
f 58//58 75//75 59//59
f 59//59 60//60 43//43
f 59//59 75//75 60//60
f 60//60 61//61 45//45
f 60//60 77//77 61//61
f 61//61 62//62 45//45
f 61//61 77//77 62//62
f 62//62 63//63 47//47
f 62//62 79//79 63//63
f 63//63 64//64 47//47
f 63//63 79//79 64//64
f 64//64 65//65 49//49
f 64//64 80//80 65//65
f 65//65 66//66 50//50
f 65//65 82//82 66//66
f 65//65 96//96 81//81
f 66//66 67//67 50//50
f 66//66 82//82 67//67
f 67//67 68//68 52//52
f 67//67 84//84 68//68
f 68//68 69//69 52//52
f 68//68 84//84 69//69
f 69//69 70//70 54//54
f 69//69 86//86 70//70
f 70//70 71//71 54//54
f 70//70 86//86 71//71
f 71//71 72//72 56//56
f 71//71 88//88 72//72
f 72//72 73//73 56//56
f 72//72 88//88 73//73
f 73//73 74//74 58//58
f 73//73 90//90 74//74
f 74//74 75//75 58//58
f 74//74 90//90 75//75
f 75//75 76//76 60//60
f 75//75 92//92 76//76
f 76//76 77//77 60//60
f 76//76 92//92 77//77
f 77//77 78//78 62//62
f 77//77 94//94 78//78
f 78//78 79//79 62//62
f 78//78 94//94 79//79
f 79//79 80//80 64//64
f 79//79 96//96 80//80
f 80//80 96//96 65//65
f 81//81 82//82 65//65
f 81//81 97//97 82//82
f 82//82 83//83 67//67
f 82//82 99//99 83//83
f 83//83 84//84 67//67
f 83//83 99//99 84//84
f 84//84 85//85 69//69
f 84//84 101//101 85//85
f 85//85 86//86 69//69
f 85//85 101//101 86//86
f 86//86 87//87 71//71
f 86//86 103//103 87//87
f 87//87 88//88 71//71
f 87//87 103//103 88//88
f 88//88 89//89 73//73
f 88//88 105//105 89//89
f 89//89 90//90 73//73
f 89//89 105//105 90//90
f 90//90 91//91 75//75
f 90//90 107//107 91//91
f 91//91 92//92 75//75
f 91//91 107//107 92//92
f 92//92 93//93 77//77
f 92//92 109//109 93//93
f 93//93 94//94 77//77
f 93//93 109//109 94//94
f 94//94 95//95 79//79
f 94//94 111//111 95//95
f 95//95 96//96 79//79
f 95//95 111//111 96//96
f 96//96 97//97 81//81
f 96//96 112//112 97//97
f 97//97 98//98 82//82
f 97//97 114//114 98//98
f 98//98 99//99 82//82
f 98//98 114//114 99//99
f 99//99 100//100 84//84
f 99//99 114//114 100//100
f 100//100 101//101 84//84
f 100//100 114//114 101//101
f 101//101 102//102 86//86
f 101//101 114//114 102//102
f 102//102 103//103 86//86
f 102//102 114//114 103//103
f 103//103 104//104 88//88
f 103//103 114//114 104//104
f 104//104 105//105 88//88
f 104//104 114//114 105//105
f 105//105 106//106 90//90
f 105//105 114//114 106//106
f 106//106 107//107 90//90
f 106//106 114//114 107//107
f 107//107 108//108 92//92
f 107//107 114//114 108//108
f 108//108 109//109 92//92
f 108//108 114//114 109//109
f 109//109 110//110 94//94
f 109//109 114//114 110//110
f 110//110 111//111 94//94
f 110//110 114//114 111//111
f 111//111 112//112 96//96
f 111//111 114//114 112//112
f 112//112 114//114 97//97
